# xmcd CD database file
#
# Track frame offsets:
#	150
#	19062
#	34192
#	56234
#	68911
#	92219
#	117610
#	146394
#	160782
#	183095
#	199458
#	226310
#	249344
#	267723
#	284254
#	292882
#
# Disc length: 4111 seconds
#
# Revision: 1
# Processed by: cddbd v1.5.2PL0 Copyright (c) Steve Scherf et al.
# Submitted via: CDex 1.51
#
DISCID=f0100d10
DTITLE=Asher Quinn - Falling Through Time
DYEAR=2010
DGENRE=New Age
TTITLE0=Song Of The Blue Lotus
TTITLE1=This Little Bird
TTITLE2=Visions
TTITLE3=The Raggle Taggle Gypsies
TTITLE4=Falling Through Time
TTITLE5=The Mystic Garden
TTITLE6=Shenandoah
TTITLE7=Love Is Come Again
TTITLE8=Have Mercy On Me
TTITLE9=Wayfaring Stranger
TTITLE10=Forgiveness
TTITLE11=Amazing Grace
TTITLE12=Spanish Is The Loving Tongue
TTITLE13=Everything Is In God
TTITLE14=Love's Philosophy
TTITLE15=Blessings On Your Soul
EXTD=YEAR: 2010
EXTT0=
EXTT1=
EXTT2=
EXTT3=
EXTT4=
EXTT5=
EXTT6=
EXTT7=
EXTT8=
EXTT9=
EXTT10=
EXTT11=
EXTT12=
EXTT13=
EXTT14=
EXTT15=
PLAYORDER=
